<svg xmlns="http://www.w3.org/2000/svg" version="1.1" xmlns:xlink="http://www.w3.org/1999/xlink" xmlns:svgjs="http://svgjs.dev/svgjs" width="1500" height="1500" viewBox="0 0 1500 1500"><rect width="1500" height="1500" fill="#ffffff"></rect><g transform="matrix(0.6666666666666666,0,0,0.6666666666666666,249.39393939393938,578.7419252963045)"><svg viewBox="0 0 396 136" data-background-color="#ffffff" preserveAspectRatio="xMidYMid meet" height="515" width="1500" xmlns="http://www.w3.org/2000/svg" xmlns:xlink="http://www.w3.org/1999/xlink"><g id="tight-bounds" transform="matrix(1,0,0,1,0.2400000000000091,-0.16185002028373674)"><svg viewBox="0 0 395.52 136.32370004056745" height="136.32370004056745" width="395.52"><g><svg viewBox="0 0 581.2202014767724 200.328904742207" height="136.32370004056745" width="395.52"><g><rect width="8.566929446685302" height="145.68057110413744" x="417.9465168761395" y="27.324166819034772" fill="#dcbef5" opacity="1" stroke-width="0" stroke="transparent" fill-opacity="1" class="rect-yte-0" data-fill-palette-color="primary" rx="1%" id="yte-0" data-palette-color="#dcbef5"></rect></g><g transform="matrix(1,0,0,1,0,27.686556299393317)"><svg viewBox="0 0 395.52 144.95579214342035" height="144.95579214342035" width="395.52"><g id="textblocktransform"><svg viewBox="0 0 395.52 144.95579214342035" height="144.95579214342035" width="395.52" id="textblock"><g><svg viewBox="0 0 395.52 94.99702162074728" height="94.99702162074728" width="395.52"><g transform="matrix(1,0,0,1,0,0)"><svg width="395.52" viewBox="1 -37.15 163.64 39.30595238095238" height="94.99702162074728" data-palette-color="#dcbef5"><g class="wordmark-text-0" data-fill-palette-color="primary" id="text-0"><path d="M17.35-35.8L17.35-35.8Q17.25-35.95 17.07-36.27 16.9-36.6 17-36.7L17-36.7Q17.1-36.8 17.32-36.65 17.55-36.5 17.6-36.45L17.6-36.45Q18.5-35.8 19.28-34.65 20.05-33.5 20.68-32.13 21.3-30.75 21.8-29.25 22.3-27.75 22.6-26.4L22.6-26.4Q23.35-23.1 23.88-19.9 24.4-16.7 24.4-13.3L24.4-13.3Q24.4-13.2 24.43-12.7 24.45-12.2 24.25-12.1L24.25-12.1Q24.1-12.2 23.93-12.6 23.75-13 23.7-13.15L23.7-13.15Q23.1-15 22.63-17.38 22.15-19.75 21.75-21.7L21.75-21.7Q21.45-23.2 21.2-24.58 20.95-25.95 20.63-27.25 20.3-28.55 19.88-29.88 19.45-31.2 18.85-32.65L18.85-32.65Q18.75-32.85 18.53-33.35 18.3-33.85 18.05-34.35 17.8-34.85 17.6-35.27 17.4-35.7 17.35-35.8ZM29.35 1.25L29.35 1.25Q28.8 0.95 28.6 0.88 28.4 0.8 27.85 0.45L27.85 0.45Q26.65-0.25 25.65-1.38 24.65-2.5 23.85-3.85 23.05-5.2 22.43-6.73 21.8-8.25 21.35-9.75L21.35-9.75Q20.35-9.1 18.98-8.97 17.6-8.85 16.45-8.85L16.45-8.85Q15-8.85 13.58-8.95 12.15-9.05 10.7-9.05L10.7-9.05Q9.3-6.45 8.08-4.03 6.85-1.6 6.15 0.5L6.15 0.5Q6.15 0.55 6.1 0.73 6.05 0.9 5.95 0.9L5.95 0.9Q5.8 0.9 5.8 0.55 5.8 0.2 5.8 0.1L5.8 0.1Q5.8-1.9 6.78-4.38 7.75-6.85 8.95-9.25L8.95-9.25 8.2-9.3Q7.9-8.6 7.38-7.35 6.85-6.1 6.38-4.75 5.9-3.4 5.53-2.15 5.15-0.9 5.15-0.15L5.15-0.15Q5.15 0 5 0L5 0Q4.8 0 4.7-0.33 4.6-0.65 4.53-1.05 4.45-1.45 4.42-1.88 4.4-2.3 4.4-2.45L4.4-2.45Q4.4-4.2 4.85-6.13 5.3-8.05 6.05-9.65L6.05-9.65 5.4-9.75Q4.95-8.65 4.55-7.58 4.15-6.5 3.85-5.35L3.85-5.35Q3.85-5.25 3.8-5.1 3.75-4.95 3.65-5L3.65-5Q3.55-5.2 3.53-5.48 3.5-5.75 3.5-5.95L3.5-5.95Q3.5-8.05 4.25-10L4.25-10Q4.5-10.5 4.75-10.5L4.75-10.5Q5.8-10.8 6.88-10.85 7.95-10.9 9.1-10.9L9.1-10.9Q11.6-10.9 14.05-10.53 16.5-10.15 18.95-10.15L18.95-10.15Q20.15-10.15 21.15-10.35L21.15-10.35 21.05-11.15Q20.5-11 19.88-10.95 19.25-10.9 18.7-10.9L18.7-10.9Q16.75-10.9 14.68-11.3 12.6-11.7 10.7-12.25L10.7-12.25Q10.6-12.35 10.3-12.43 10-12.5 10-12.65L10-12.65Q10-12.75 10.3-12.83 10.6-12.9 10.7-12.9L10.7-12.9Q11.4-12.95 12.08-12.98 12.75-13 13.45-13L13.45-13Q14.6-13 15.75-12.98 16.9-12.95 18.1-12.95L18.1-12.95Q18.7-12.95 19.35-12.95 20-12.95 20.6-13L20.6-13 20.5-13.55 19.85-13.55Q17.45-13.55 15.08-14 12.7-14.45 10.3-14.45L10.3-14.45Q8.25-14.45 6.68-13.95 5.1-13.45 3.98-12.8 2.85-12.15 2.15-11.5 1.45-10.85 1.15-10.55L1.15-10.55Q1.05-10.5 1.05-10.5L1.05-10.5Q1-10.5 1-10.6L1-10.6Q1-10.65 1.05-10.7L1.05-10.7Q1.95-12.45 3.25-13.63 4.55-14.8 6.45-15.4L6.45-15.4Q8.35-19.45 10.38-23.45 12.4-27.45 14.65-31.35L14.65-31.35Q14.7-31.45 14.85-31.68 15-31.9 15.15-31.9L15.15-31.9Q15.2-31.85 15.2-31.8L15.2-31.8 15.2-31.7Q15.2-31.3 15.15-31.1L15.15-31.1Q14.2-27.05 12.35-23.3 10.5-19.55 8.55-15.9L8.55-15.9 9.5-15.95Q9.65-16.25 10.28-17.25 10.9-18.25 11.63-19.33 12.35-20.4 12.95-21.28 13.55-22.15 13.7-22.15L13.7-22.15 13.75-22Q13.75-21.75 13.45-20.9 13.15-20.05 12.75-19.05 12.35-18.05 11.98-17.18 11.6-16.3 11.45-15.95L11.45-15.95Q11.75-15.95 12.05-15.93 12.35-15.9 12.65-15.9L12.65-15.9Q13.55-17.7 14.58-19.68 15.6-21.65 16.35-23.7 17.1-25.75 17.38-27.85 17.65-29.95 17.05-32L17.05-32Q17.05-31.75 16.93-31 16.8-30.25 16.6-29.43 16.4-28.6 16.2-27.98 16-27.35 15.8-27.35L15.8-27.35Q15.65-27.35 15.68-27.55 15.7-27.75 15.7-27.8L15.7-27.8Q15.7-29.1 15.88-30.38 16.05-31.65 16.05-32.95L16.05-32.95Q16.05-34.7 15.5-36.35L15.5-36.35Q15.5-36.4 15.35-36.77 15.2-37.15 15.45-37.15L15.45-37.15Q15.55-37.15 15.8-36.9L15.8-36.9Q16.3-36.4 16.78-35.55 17.25-34.7 17.65-33.73 18.05-32.75 18.4-31.8 18.75-30.85 18.95-30.2L18.95-30.2Q19.6-28.05 20.03-25.88 20.45-23.7 20.78-21.53 21.1-19.35 21.45-17.15 21.8-14.95 22.25-12.8L22.25-12.8Q22.7-10.7 23.33-8.7 23.95-6.7 24.85-4.9 25.75-3.1 26.93-1.58 28.1-0.05 29.65 1.1L29.65 1.1Q29.9 1.35 29.83 1.43 29.75 1.5 29.35 1.25ZM29.1-3.6L29.25-3Q29.3-2.7 29.2-2.73 29.1-2.75 28.98-2.9 28.85-3.05 28.73-3.25 28.6-3.45 28.6-3.5L28.6-3.5Q27.4-5.7 26.7-7.98 26-10.25 25.6-12.58 25.2-14.9 24.93-17.28 24.65-19.65 24.28-22.13 23.9-24.6 23.3-27.15 22.7-29.7 21.6-32.35L21.6-32.35Q21.55-32.45 21.45-32.7 21.35-32.95 21.45-33L21.45-33Q21.55-33 21.7-32.85L21.7-32.85 21.9-32.65Q23-31.35 23.85-29.2 24.7-27.05 25.35-24.6 26-22.15 26.43-19.75 26.85-17.35 27.1-15.55L27.1-15.55Q27.5-12.7 27.95-9.55 28.4-6.4 29.1-3.6L29.1-3.6ZM14.4-15.7L14.4-15.7Q15.85-15.55 17.28-15.35 18.7-15.15 20.15-15.05L20.15-15.05Q19.6-17.7 19.2-20.3 18.8-22.9 18.45-25.6L18.45-25.6Q17.8-23 16.68-20.55 15.55-18.1 14.4-15.7ZM30.85 0.7L30.85 0.7Q29.85 0.25 29.1-0.18 28.35-0.6 27.8-1.35L27.8-1.35Q26.95-2.5 26.48-3.65 26-4.8 25.7-5.8L25.7-5.8Q25.6-6.2 25.53-6.7 25.45-7.2 25.55-7.2L25.55-7.2Q25.75-7.2 26.05-6.55 26.35-5.9 26.6-5.45L26.6-5.45Q27.35-3.9 28.5-2.33 29.65-0.75 31 0.25L31 0.25Q31.4 0.6 31.25 0.7 31.1 0.8 30.85 0.7ZM1.3-8.9L1.3-8.9Q1.3-8.9 1.2-8.9L1.2-8.9 1.15-8.9Q1.15-9.05 1.2-9.2 1.25-9.35 1.3-9.5L1.3-9.5Q1.7-10.35 2.08-10.78 2.45-11.2 3.3-11.7L3.3-11.7Q3.8-12 4.7-12.3 5.6-12.6 6.15-12.6L6.15-12.6Q6.25-12.6 6.43-12.58 6.6-12.55 6.6-12.4L6.6-12.4Q6.6-12.25 6.08-12 5.55-11.75 5.4-11.65L5.4-11.65Q3.5-10.5 2.6-9.9 1.7-9.3 1.3-8.9ZM46-35.35L46-35.35Q47-35.35 48.3-34.98 49.6-34.6 50.4-33.75L50.4-33.75Q50.95-33.25 50.25-33.45L50.25-33.45Q49.55-33.55 48.82-33.77 48.1-34 47.25-34L47.25-34Q44.15-34.05 42.75-32.23 41.35-30.4 41.15-27.6L41.15-27.6Q41-25.65 41.22-23.73 41.45-21.8 41.75-19.9 42.05-18 42.27-16.1 42.5-14.2 42.3-12.25L42.3-12.25Q42.25-11.7 42.17-11.6 42.1-11.5 42.02-11.65 41.95-11.8 41.87-12.08 41.8-12.35 41.75-12.55L41.75-12.55Q41.45-14.55 41-16.57 40.55-18.6 40.15-20.65 39.75-22.7 39.52-24.75 39.3-26.8 39.5-28.9L39.5-28.9Q39.65-30.25 40.15-31.43 40.65-32.6 41.47-33.48 42.3-34.35 43.45-34.85 44.6-35.35 46-35.35ZM37.1-28.75L37.1-28.75Q37.25-30.1 37.8-31.48 38.35-32.85 39.27-33.98 40.2-35.1 41.52-35.77 42.85-36.45 44.5-36.45L44.5-36.45Q44.55-36.45 44.77-36.43 45-36.4 45.17-36.35 45.35-36.3 45.32-36.25 45.3-36.2 44.95-36.15L44.95-36.15Q43.6-35.9 42.45-35.25 41.3-34.6 40.45-33.65 39.6-32.7 39.07-31.53 38.55-30.35 38.45-29.1L38.45-29.1Q38.25-26.7 38.65-24.28 39.05-21.85 39.57-19.45 40.1-17.05 40.47-14.63 40.85-12.2 40.65-9.8L40.65-9.8Q40.55-8.85 40.2-7.8 39.85-6.75 39.27-5.85 38.7-4.95 37.85-4.33 37-3.7 35.95-3.55L35.95-3.55Q35.15-3.45 35.27-3.63 35.4-3.8 35.85-4.05L35.85-4.05Q37.65-5.05 38.32-6.4 39-7.75 39.2-9.75L39.2-9.75Q39.4-12.05 39.02-14.45 38.65-16.85 38.15-19.25 37.65-21.65 37.27-24.03 36.9-26.4 37.1-28.75ZM35.75-1.05L35.75-1.05Q37.85-1.05 39.3-1.83 40.75-2.6 41.7-3.88 42.65-5.15 43.15-6.83 43.65-8.5 43.8-10.3L43.8-10.3Q44-12.55 43.7-14.8 43.4-17.05 43.02-19.28 42.65-21.5 42.35-23.75 42.05-26 42.25-28.3L42.25-28.3Q42.45-30.6 43.67-31.95 44.9-33.3 47.35-33.3L47.35-33.3Q48.2-33.3 49.52-33 50.85-32.7 51.7-32.15L51.7-32.15Q52.6-31.55 51.55-31.8L51.55-31.8Q50.95-31.95 50-32.15 49.05-32.35 48.55-32.35L48.55-32.35Q46.6-32.35 45.2-31.5 43.8-30.65 43.6-28.5L43.6-28.5Q43.35-26.2 43.7-23.93 44.05-21.65 44.5-19.35 44.95-17.05 45.27-14.75 45.6-12.45 45.4-10.15L45.4-10.15Q45.25-8.25 44.65-6.45 44.05-4.65 42.95-3.2 41.85-1.75 40.22-0.88 38.6 0 36.4 0L36.4 0Q35.8 0 34.85-0.2 33.9-0.4 32.95-0.73 32-1.05 31.17-1.53 30.35-2 29.95-2.55L29.95-2.55Q29.5-3.05 30.25-2.8L30.25-2.8Q31.1-2.35 32.32-1.7 33.55-1.05 35.75-1.05ZM35.45-2.8L35.45-2.8Q36.7-2.8 37.75-3.2 38.8-3.6 39.9-4.25L39.9-4.25 39.9-4.1Q39.9-3.65 39.42-3.23 38.95-2.8 38.25-2.45 37.55-2.1 36.67-1.9 35.8-1.7 34.9-1.7L34.9-1.7Q34.55-1.7 33.95-1.83 33.35-1.95 32.72-2.18 32.1-2.4 31.55-2.7 31-3 30.8-3.4L30.8-3.4Q30.25-4 30.45-4.08 30.65-4.15 31-3.9L31-3.9Q31.8-3.65 32.82-3.23 33.85-2.8 35.45-2.8ZM77.3-32.4L77.3-32.4Q77.3-31.5 76.87-30.5 76.44-29.5 75.84-28.55 75.25-27.6 74.5-26.83 73.75-26.05 73.05-25.55L73.05-25.55Q71.15-24.15 68.87-22.88 66.59-21.6 64.44-20.75L64.44-20.75Q64.34-20.7 64-20.58 63.65-20.45 63.55-20.55L63.55-20.55Q63.45-20.65 63.7-20.93 63.95-21.2 64.09-21.3L64.09-21.3Q64.44-21.65 65.02-22.15 65.59-22.65 66.22-23.13 66.84-23.6 67.47-24.05 68.09-24.5 68.59-24.75L68.59-24.75Q68.94-24.95 70.17-25.88 71.4-26.8 72.8-28.03 74.19-29.25 75.42-30.5 76.65-31.75 76.94-32.55L76.94-32.55Q77.15-32.9 77.25-32.8L77.25-32.8Q77.3-32.75 77.3-32.6 77.3-32.45 77.3-32.4ZM55.5-13.85L55.5-13.85Q57.34-13.6 59.09-13.13 60.84-12.65 62.34-11.35L62.34-11.35Q64.09-9.85 65.94-8.03 67.8-6.2 69.34-4.45L69.34-4.45Q69.44-4.35 69.65-4.08 69.84-3.8 69.75-3.65L69.75-3.65Q69.69-3.55 69.37-3.68 69.05-3.8 68.94-3.9L68.94-3.9Q68.5-4.15 67.87-4.58 67.25-5 66.59-5.5 65.94-6 65.34-6.48 64.75-6.95 64.34-7.35L64.34-7.35Q64.09-7.6 63.02-8.47 61.95-9.35 60.5-10.33 59.05-11.3 57.47-12.15 55.9-13 54.65-13.3L54.65-13.3Q54.24-13.4 54.27-13.8 54.3-14.2 54.34-14.5L54.34-14.5Q54.45-15.1 54.62-16 54.8-16.9 54.97-17.85 55.15-18.8 55.34-19.7 55.55-20.6 55.75-21.25L55.75-21.25Q55.9-21.7 56.3-23.5 56.7-25.3 57.09-27.5 57.5-29.7 57.7-31.75 57.9-33.8 57.65-34.75L57.65-34.75Q57.55-35.2 57.7-35.2L57.7-35.2Q57.8-35.2 57.84-35.08 57.9-34.95 58-34.85L58-34.85Q58.55-34 58.84-32.8 59.15-31.6 59.22-30.28 59.3-28.95 59.17-27.65 59.05-26.35 58.8-25.4L58.8-25.4Q58.25-23.3 57.55-21.23 56.84-19.15 56.05-17.05L56.05-17.05Q56.59-17.85 57.09-18.57 57.59-19.3 58-19.95L58-19.95 58.05-20.2Q58.55-22.6 59.27-25.05 60-27.5 60.09-30.35L60.09-30.35Q60.2-30.6 60.25-30.6L60.25-30.6Q60.3-30.6 60.34-30.5 60.4-30.4 60.45-30.3L60.45-30.3Q61-28.95 60.84-26.78 60.7-24.6 60.25-22.25L60.25-22.25Q60.84-22.75 61.42-23.2 62-23.65 62.7-24.1L62.7-24.1Q64.59-25.4 66.59-26.6 68.59-27.8 70.47-29.05 72.34-30.3 73.94-31.6 75.55-32.9 76.69-34.45L76.69-34.45Q76.84-34.6 76.9-34.5L76.9-34.5Q76.94-34.5 76.92-34.38 76.9-34.25 76.9-34.2L76.9-34.2Q76.15-32.15 74.62-30.58 73.09-29 71.17-27.65 69.25-26.3 67.14-25.1 65.05-23.9 63.15-22.55L63.15-22.55Q60.8-20.95 58.75-18.75 56.7-16.55 55.5-13.85ZM57.9-14.15L57.9-14.15Q57.65-14.15 57.22-14.18 56.8-14.2 56.45-14.15L56.45-14.15Q56.65-14.55 56.92-14.95 57.2-15.35 57.45-15.75L57.45-15.75Q57.75-16.15 58.17-16.63 58.59-17.1 59.02-17.48 59.45-17.85 59.77-18.03 60.09-18.2 60.2-18L60.2-18Q60.25-17.95 60.12-17.75 60-17.55 59.8-17.28 59.59-17 59.42-16.78 59.25-16.55 59.2-16.45L59.2-16.45Q58.65-15.75 58.4-15.23 58.15-14.7 57.9-14.15ZM77.05-0.6L77.05-0.6Q76.94-0.5 76.77-0.58 76.59-0.65 76.4-0.75L76.4-0.75Q74.94-1.4 73.67-2.35 72.4-3.3 71.19-4.4 70-5.5 68.82-6.68 67.64-7.85 66.44-9L66.44-9Q65.59-9.8 64.64-10.65 63.7-11.5 62.7-12.23 61.7-12.95 60.62-13.48 59.55-14 58.45-14.15L58.45-14.15Q59.09-15.1 60.55-16.3 62-17.5 63.7-18.65 65.39-19.8 67.05-20.85 68.69-21.9 69.75-22.55L69.75-22.55Q71.5-23.65 73.27-24.9 75.05-26.15 76.55-27.95L76.55-27.95Q76.69-28.15 76.84-28.1L76.84-28.1Q76.84-28 76.8-27.93 76.75-27.85 76.75-27.75L76.75-27.75Q76.5-26.5 75.27-25.13 74.05-23.75 72.5-22.5 70.94-21.25 69.34-20.18 67.75-19.1 66.8-18.45L66.8-18.45Q65.89-17.85 64.92-17.3 63.95-16.75 62.95-16.23 61.95-15.7 61.02-15.28 60.09-14.85 59.3-14.5L59.3-14.5Q60.59-14.5 62.27-13.7 63.95-12.9 65.59-11.78 67.25-10.65 68.64-9.43 70.05-8.2 70.8-7.4L70.8-7.4Q72.4-5.65 73.97-4 75.55-2.35 76.75-1.15L76.75-1.15Q77.15-0.75 77.05-0.6ZM56.55-36.1L56.55-36.1Q57.25-33.7 57-31.13 56.75-28.55 56.02-25.85 55.3-23.15 54.4-20.35 53.49-17.55 52.84-14.8L52.84-14.8Q52.45-13.05 52.22-11.15 51.99-9.25 52.07-7.33 52.15-5.4 52.52-3.58 52.9-1.75 53.74-0.2L53.74-0.2Q53.95 0.2 53.9 0.2L53.9 0.2Q53.8 0.2 53.7 0.1 53.59 0 53.55 0L53.55 0Q52.15-1.65 51.49-3.58 50.84-5.5 50.7-7.55 50.55-9.6 50.82-11.7 51.09-13.8 51.55-15.8L51.55-15.8Q52.2-18.55 53.05-21.28 53.9-24 54.62-26.58 55.34-29.15 55.84-31.55 56.34-33.95 56.3-36.15L56.3-36.15Q56.3-36.45 56.34-36.45L56.34-36.45Q56.4-36.5 56.47-36.33 56.55-36.15 56.55-36.1ZM80.19 1L80.19 1Q80.19 1.1 80.09 1.15 80 1.2 79.9 1.25L79.9 1.25Q78 1.95 76.22 1.88 74.44 1.8 72.77 1.28 71.09 0.75 69.57-0.1 68.05-0.95 66.69-1.8L66.69-1.8Q65.34-2.65 64.09-3.75 62.84-4.85 61.65-6 60.45-7.15 59.27-8.25 58.09-9.35 56.95-10.2L56.95-10.2 55.4-5Q55.3-4.75 55.22-4.55 55.15-4.35 55.05-4.4L55.05-4.4Q54.95-4.45 54.92-4.67 54.9-4.9 54.9-5.15L54.9-5.15Q54.95-6.6 55.15-8.1 55.34-9.6 55.65-11.1L55.65-11.1Q55.34-11.3 54.9-11.55 54.45-11.8 54.05-12.05L54.05-12.05Q53.95-12.1 53.8-12.23 53.65-12.35 53.7-12.45L53.7-12.45Q53.7-12.5 53.95-12.5L53.95-12.5Q55.75-12.35 57.47-11.33 59.2-10.3 60.92-8.88 62.65-7.45 64.39-5.8 66.14-4.15 68.05-2.65L68.05-2.65Q70.44-0.8 73.55 0.28 76.65 1.35 79.84 0.95L79.84 0.95Q80.19 0.85 80.19 1ZM55.3 0.2L55.3 0.2Q55.2 0.2 55 0.1L55 0.1Q54.9 0.05 54.84-0.05L54.84-0.05Q54.2-0.8 53.82-1.45 53.45-2.1 53.2-3.55L53.2-3.55Q53.09-4.1 53.07-4.95 53.05-5.8 53.09-6.6 53.15-7.4 53.27-7.95 53.4-8.5 53.59-8.5L53.59-8.5Q53.65-8.5 53.72-8.25 53.8-8 53.84-7.68 53.9-7.35 53.92-7.03 53.95-6.7 53.95-6.6L53.95-6.6Q54.05-5.5 54.12-4.8 54.2-4.1 54.3-3.55L54.3-3.55Q54.55-1.95 55.3-0.2L55.3-0.2Q55.34-0.1 55.37 0.05 55.4 0.2 55.3 0.2ZM73.4-0.8L73.4-0.8Q73.75-0.75 74.27-0.63 74.8-0.5 75.09-0.4L75.09-0.4Q76.4-0.05 77.27 0.13 78.15 0.3 79.34 0.35L79.34 0.35Q79.44 0.35 79.62 0.35 79.8 0.35 79.8 0.45L79.8 0.45Q79.8 0.65 79.3 0.7L79.3 0.7Q78.69 0.8 78.25 0.8 77.8 0.8 77.09 0.75L77.09 0.75Q76.69 0.7 76.15 0.6 75.59 0.5 75.05 0.33 74.5 0.15 74.02-0.03 73.55-0.2 73.34-0.4L73.34-0.4Q73.15-0.6 73.19-0.75L73.19-0.75Q73.19-0.8 73.4-0.8ZM95.59-35.8L95.59-35.8Q95.49-35.95 95.32-36.27 95.14-36.6 95.24-36.7L95.24-36.7Q95.34-36.8 95.57-36.65 95.79-36.5 95.84-36.45L95.84-36.45Q96.74-35.8 97.52-34.65 98.29-33.5 98.92-32.13 99.54-30.75 100.04-29.25 100.54-27.75 100.84-26.4L100.84-26.4Q101.59-23.1 102.12-19.9 102.64-16.7 102.64-13.3L102.64-13.3Q102.64-13.2 102.67-12.7 102.69-12.2 102.49-12.1L102.49-12.1Q102.34-12.2 102.17-12.6 101.99-13 101.94-13.15L101.94-13.15Q101.34-15 100.87-17.38 100.39-19.75 99.99-21.7L99.99-21.7Q99.69-23.2 99.44-24.58 99.19-25.95 98.87-27.25 98.54-28.55 98.12-29.88 97.69-31.2 97.09-32.65L97.09-32.65Q96.99-32.85 96.77-33.35 96.54-33.85 96.29-34.35 96.04-34.85 95.84-35.27 95.64-35.7 95.59-35.8ZM107.59 1.25L107.59 1.25Q107.04 0.95 106.84 0.88 106.64 0.8 106.09 0.45L106.09 0.45Q104.89-0.25 103.89-1.38 102.89-2.5 102.09-3.85 101.29-5.2 100.67-6.73 100.04-8.25 99.59-9.75L99.59-9.75Q98.59-9.1 97.22-8.97 95.84-8.85 94.69-8.85L94.69-8.85Q93.24-8.85 91.82-8.95 90.39-9.05 88.94-9.05L88.94-9.05Q87.54-6.45 86.32-4.03 85.09-1.6 84.39 0.5L84.39 0.5Q84.39 0.55 84.34 0.73 84.29 0.9 84.19 0.9L84.19 0.9Q84.04 0.9 84.04 0.55 84.04 0.2 84.04 0.1L84.04 0.1Q84.04-1.9 85.02-4.38 85.99-6.85 87.19-9.25L87.19-9.25 86.44-9.3Q86.14-8.6 85.62-7.35 85.09-6.1 84.62-4.75 84.14-3.4 83.77-2.15 83.39-0.9 83.39-0.15L83.39-0.15Q83.39 0 83.24 0L83.24 0Q83.04 0 82.94-0.33 82.84-0.65 82.77-1.05 82.69-1.45 82.67-1.88 82.64-2.3 82.64-2.45L82.64-2.45Q82.64-4.2 83.09-6.13 83.54-8.05 84.29-9.65L84.29-9.65 83.64-9.75Q83.19-8.65 82.79-7.58 82.39-6.5 82.09-5.35L82.09-5.35Q82.09-5.25 82.04-5.1 81.99-4.95 81.89-5L81.89-5Q81.79-5.2 81.77-5.48 81.74-5.75 81.74-5.95L81.74-5.95Q81.74-8.05 82.49-10L82.49-10Q82.74-10.5 82.99-10.5L82.99-10.5Q84.04-10.8 85.12-10.85 86.19-10.9 87.34-10.9L87.34-10.9Q89.84-10.9 92.29-10.53 94.74-10.15 97.19-10.15L97.19-10.15Q98.39-10.15 99.39-10.35L99.39-10.35 99.29-11.15Q98.74-11 98.12-10.95 97.49-10.9 96.94-10.9L96.94-10.9Q94.99-10.9 92.92-11.3 90.84-11.7 88.94-12.25L88.94-12.25Q88.84-12.35 88.54-12.43 88.24-12.5 88.24-12.65L88.24-12.65Q88.24-12.75 88.54-12.83 88.84-12.9 88.94-12.9L88.94-12.9Q89.64-12.95 90.32-12.98 90.99-13 91.69-13L91.69-13Q92.84-13 93.99-12.98 95.14-12.95 96.34-12.95L96.34-12.95Q96.94-12.95 97.59-12.95 98.24-12.95 98.84-13L98.84-13 98.74-13.55 98.09-13.55Q95.69-13.55 93.32-14 90.94-14.45 88.54-14.45L88.54-14.45Q86.49-14.45 84.92-13.95 83.34-13.45 82.22-12.8 81.09-12.15 80.39-11.5 79.69-10.85 79.39-10.55L79.39-10.55Q79.29-10.5 79.29-10.5L79.29-10.5Q79.24-10.5 79.24-10.6L79.24-10.6Q79.24-10.65 79.29-10.7L79.29-10.7Q80.19-12.45 81.49-13.63 82.79-14.8 84.69-15.4L84.69-15.4Q86.59-19.45 88.62-23.45 90.64-27.45 92.89-31.35L92.89-31.35Q92.94-31.45 93.09-31.68 93.24-31.9 93.39-31.9L93.39-31.9Q93.44-31.85 93.44-31.8L93.44-31.8 93.44-31.7Q93.44-31.3 93.39-31.1L93.39-31.1Q92.44-27.05 90.59-23.3 88.74-19.55 86.79-15.9L86.79-15.9 87.74-15.95Q87.89-16.25 88.52-17.25 89.14-18.25 89.87-19.33 90.59-20.4 91.19-21.28 91.79-22.15 91.94-22.15L91.94-22.15 91.99-22Q91.99-21.75 91.69-20.9 91.39-20.05 90.99-19.05 90.59-18.05 90.22-17.18 89.84-16.3 89.69-15.95L89.69-15.95Q89.99-15.95 90.29-15.93 90.59-15.9 90.89-15.9L90.89-15.9Q91.79-17.7 92.82-19.68 93.84-21.65 94.59-23.7 95.34-25.75 95.62-27.85 95.89-29.95 95.29-32L95.29-32Q95.29-31.75 95.17-31 95.04-30.25 94.84-29.43 94.64-28.6 94.44-27.98 94.24-27.35 94.04-27.35L94.04-27.35Q93.89-27.35 93.92-27.55 93.94-27.75 93.94-27.8L93.94-27.8Q93.94-29.1 94.12-30.38 94.29-31.65 94.29-32.95L94.29-32.95Q94.29-34.7 93.74-36.35L93.74-36.35Q93.74-36.4 93.59-36.77 93.44-37.15 93.69-37.15L93.69-37.15Q93.79-37.15 94.04-36.9L94.04-36.9Q94.54-36.4 95.02-35.55 95.49-34.7 95.89-33.73 96.29-32.75 96.64-31.8 96.99-30.85 97.19-30.2L97.19-30.2Q97.84-28.05 98.27-25.88 98.69-23.7 99.02-21.53 99.34-19.35 99.69-17.15 100.04-14.95 100.49-12.8L100.49-12.8Q100.94-10.7 101.57-8.7 102.19-6.7 103.09-4.9 103.99-3.1 105.17-1.58 106.34-0.05 107.89 1.1L107.89 1.1Q108.14 1.35 108.07 1.43 107.99 1.5 107.59 1.25ZM107.34-3.6L107.49-3Q107.54-2.7 107.44-2.73 107.34-2.75 107.22-2.9 107.09-3.05 106.97-3.25 106.84-3.45 106.84-3.5L106.84-3.5Q105.64-5.7 104.94-7.98 104.24-10.25 103.84-12.58 103.44-14.9 103.17-17.28 102.89-19.65 102.52-22.13 102.14-24.6 101.54-27.15 100.94-29.7 99.84-32.35L99.84-32.35Q99.79-32.45 99.69-32.7 99.59-32.95 99.69-33L99.69-33Q99.79-33 99.94-32.85L99.94-32.85 100.14-32.65Q101.24-31.35 102.09-29.2 102.94-27.05 103.59-24.6 104.24-22.15 104.67-19.75 105.09-17.35 105.34-15.55L105.34-15.55Q105.74-12.7 106.19-9.55 106.64-6.4 107.34-3.6L107.34-3.6ZM92.64-15.7L92.64-15.7Q94.09-15.55 95.52-15.35 96.94-15.15 98.39-15.05L98.39-15.05Q97.84-17.7 97.44-20.3 97.04-22.9 96.69-25.6L96.69-25.6Q96.04-23 94.92-20.55 93.79-18.1 92.64-15.7ZM109.09 0.7L109.09 0.7Q108.09 0.25 107.34-0.18 106.59-0.6 106.04-1.35L106.04-1.35Q105.19-2.5 104.72-3.65 104.24-4.8 103.94-5.8L103.94-5.8Q103.84-6.2 103.77-6.7 103.69-7.2 103.79-7.2L103.79-7.2Q103.99-7.2 104.29-6.55 104.59-5.9 104.84-5.45L104.84-5.45Q105.59-3.9 106.74-2.33 107.89-0.75 109.24 0.25L109.24 0.25Q109.64 0.6 109.49 0.7 109.34 0.8 109.09 0.7ZM79.54-8.9L79.54-8.9Q79.54-8.9 79.44-8.9L79.44-8.9 79.39-8.9Q79.39-9.05 79.44-9.2 79.49-9.35 79.54-9.5L79.54-9.5Q79.94-10.35 80.32-10.78 80.69-11.2 81.54-11.7L81.54-11.7Q82.04-12 82.94-12.3 83.84-12.6 84.39-12.6L84.39-12.6Q84.49-12.6 84.67-12.58 84.84-12.55 84.84-12.4L84.84-12.4Q84.84-12.25 84.32-12 83.79-11.75 83.64-11.65L83.64-11.65Q81.74-10.5 80.84-9.9 79.94-9.3 79.54-8.9ZM122.29-9.65L122.29-9.65Q123.89-8.2 125.29-6.58 126.69-4.95 127.99-3.2L127.99-3.2Q128.04-3.1 128.27-2.83 128.49-2.55 128.39-2.45L128.39-2.45Q128.34-2.4 128.02-2.53 127.69-2.65 127.59-2.75L127.59-2.75Q127.19-3 126.67-3.4 126.14-3.8 125.57-4.25 124.99-4.7 124.44-5.18 123.89-5.65 123.54-6.05L123.54-6.05Q123.29-6.25 122.34-7.08 121.39-7.9 120.19-8.85 118.99-9.8 117.74-10.6 116.49-11.4 115.69-11.6L115.69-11.6Q115.54-11.65 115.27-11.75 114.99-11.85 115.04-12.1L115.04-12.1Q115.44-14 116.04-15.8 116.64-17.6 117.19-19.5L117.19-19.5Q117.89-21.85 118.52-24.3 119.14-26.75 119.24-29.6L119.24-29.6Q119.24-29.85 119.29-29.85L119.29-29.85Q119.44-29.85 119.54-29.5L119.54-29.5Q120.14-28.15 120.04-26 119.94-23.85 119.52-21.53 119.09-19.2 118.47-17.07 117.84-14.95 117.39-13.7L117.39-13.7 117.24-13.3Q119.09-14.55 121.09-15.8 123.09-17.05 124.82-18.32 126.54-19.6 127.82-20.98 129.09-22.35 129.54-23.85L129.54-23.85Q129.84-24.85 129.47-25.85 129.09-26.85 128.17-27.73 127.24-28.6 125.84-29.25 124.44-29.9 122.74-30.15L122.74-30.15Q120.49-30.45 118.19-30.3L118.19-30.3Q118.39-28.8 118.27-27.28 118.14-25.75 117.89-24.65L117.89-24.65Q117.24-21.95 116.24-19.07 115.24-16.2 114.19-13.7L114.19-13.7Q114.09-13.55 113.89-13.2 113.69-12.85 113.54-12.9L113.54-12.9Q113.44-12.95 113.49-13.35 113.54-13.75 113.54-13.9L113.54-13.9Q113.59-14.5 113.77-15.38 113.94-16.25 114.12-17.2 114.29-18.15 114.52-19.03 114.74-19.9 114.94-20.55L114.94-20.55Q115.04-20.85 115.27-21.83 115.49-22.8 115.74-24.15 115.99-25.5 116.24-27.05 116.49-28.6 116.64-30.05L116.64-30.05 115.94-29.95Q115.79-28.05 115.34-26.1 114.89-24.15 114.32-22.18 113.74-20.2 113.12-18.18 112.49-16.15 112.04-14.2L112.04-14.2Q111.64-12.45 111.42-10.55 111.19-8.65 111.27-6.8 111.34-4.95 111.72-3.23 112.09-1.5 112.94-0.1L112.94-0.1Q113.04 0.15 112.94 0.15L112.94 0.15Q112.84 0.15 112.69 0L112.69 0Q111.44-1.45 110.79-3.25 110.14-5.05 109.97-7.03 109.79-9 110.02-11.1 110.24-13.2 110.69-15.2L110.69-15.2Q111.54-18.95 112.74-22.6 113.94-26.25 114.74-29.65L114.74-29.65Q113.49-29.35 112.29-28.93 111.09-28.5 110.04-28L110.04-28Q109.79-27.9 109.74-27.95L109.74-27.95Q109.69-28 109.79-28.13 109.89-28.25 109.99-28.3L109.99-28.3Q112.49-30.35 116.09-31.2 119.69-32.05 123.44-31.65L123.44-31.65Q125.39-31.4 127.02-30.55 128.64-29.7 129.69-28.48 130.74-27.25 131.06-25.75 131.39-24.25 130.74-22.75L130.74-22.75Q129.99-21 128.37-19.5 126.74-18 124.72-16.7 122.69-15.4 120.44-14.3 118.19-13.2 116.24-12.25L116.24-12.25Q117.04-12.25 117.89-12 118.74-11.75 119.57-11.38 120.39-11 121.12-10.55 121.84-10.1 122.29-9.65ZM136.14-22.15L136.14-22.15Q135.39-19.55 133.87-17.73 132.34-15.9 130.49-14.7 128.64-13.5 126.74-12.88 124.84-12.25 123.44-12.05L123.44-12.05Q123.04-11.95 122.72-11.98 122.39-12 122.44-12.1L122.44-12.1Q122.34-12.2 122.67-12.3 122.99-12.4 123.34-12.55L123.34-12.55Q126.04-13.55 128.54-15.15 131.04-16.75 132.94-19.4L132.94-19.4Q133.84-20.65 134.29-22.3 134.74-23.95 134.62-25.65 134.49-27.35 133.77-28.95 133.04-30.55 131.64-31.7L131.64-31.7Q129.99-33.1 128.04-33.9 126.09-34.7 124.04-35 121.99-35.3 119.89-35.13 117.79-34.95 115.84-34.45L115.84-34.45Q115.49-34.35 115.44-34.33 115.39-34.3 115.34-34.4L115.34-34.4Q115.34-34.45 115.74-34.75L115.74-34.75Q116.54-35.25 117.87-35.68 119.19-36.1 120.87-36.25 122.54-36.4 124.49-36.23 126.44-36.05 128.49-35.3L128.49-35.3Q130.59-34.6 132.44-33.13 134.29-31.65 135.39-29.5L135.39-29.5Q136.44-27.4 136.47-25.43 136.49-23.45 136.14-22.15ZM110.74-30.3L110.74-30.3Q111.74-31.75 113.39-32.68 115.04-33.6 116.99-34.05 118.94-34.5 121.07-34.45 123.19-34.4 125.19-33.95 127.19-33.5 128.92-32.6 130.64-31.7 131.79-30.4L131.79-30.4Q132.59-29.45 133.02-28.38 133.44-27.3 133.47-26.18 133.49-25.05 133.22-24 132.94-22.95 132.44-22.05L132.44-22.05Q132.34-21.85 131.94-21.38 131.54-20.9 131.44-21L131.44-21Q131.34-21.05 131.59-21.55 131.84-22.05 131.94-22.3L131.94-22.3Q132.34-23.6 132.27-24.88 132.19-26.15 131.77-27.25 131.34-28.35 130.64-29.23 129.94-30.1 129.14-30.65L129.14-30.65Q127.24-31.9 124.84-32.43 122.44-32.95 119.97-32.83 117.49-32.7 115.14-31.98 112.79-31.25 111.09-30.05L111.09-30.05Q110.64-29.65 110.49-29.8L110.49-29.8Q110.39-29.85 110.52-30.03 110.64-30.2 110.74-30.3ZM137.39 1.2L137.39 1.2Q137.69 1.15 137.69 1.25L137.69 1.25Q137.69 1.35 137.44 1.45L137.44 1.45Q135.64 2.1 133.94 2.15 132.24 2.2 130.69 1.83 129.14 1.45 127.79 0.78 126.44 0.1 125.34-0.7L125.34-0.7Q124.04-1.65 122.87-2.83 121.69-4 120.59-5.18 119.49-6.35 118.39-7.45 117.29-8.55 116.14-9.4L116.14-9.4Q115.29-6.6 114.59-4.45L114.59-4.45Q114.49-4.2 114.39-4 114.29-3.8 114.19-3.85L114.19-3.85Q114.09-3.9 114.09-4.13 114.09-4.35 114.09-4.6L114.09-4.6Q114.19-6 114.29-7.45 114.39-8.9 114.74-10.35L114.74-10.35Q114.39-10.55 114.07-10.7 113.74-10.85 113.34-11.05L113.34-11.05Q113.19-11.2 113.19-11.25L113.19-11.25Q113.19-11.3 113.32-11.3 113.44-11.3 113.54-11.3L113.54-11.3Q115.54-11.15 117.19-10.08 118.84-9 120.39-7.55 121.94-6.1 123.44-4.48 124.94-2.85 126.64-1.6L126.64-1.6Q127.59-0.9 128.81-0.33 130.04 0.25 131.44 0.65 132.84 1.05 134.37 1.23 135.89 1.4 137.39 1.2ZM129.64-6.1L129.64-6.1Q131.04-4.85 132.31-3.3 133.59-1.75 134.79-0.8L134.79-0.8Q135.14-0.45 135.09-0.3L135.09-0.3Q134.99-0.2 134.84-0.25 134.69-0.3 134.49-0.35L134.49-0.35Q133.14-0.8 131.97-1.6 130.79-2.4 129.69-3.4 128.59-4.4 127.57-5.5 126.54-6.6 125.49-7.65L125.49-7.65Q124.79-8.35 123.97-9.2 123.14-10.05 122.24-10.78 121.34-11.5 120.37-11.98 119.39-12.45 118.34-12.45L118.34-12.45 120.29-13.3Q121.04-13.65 122.14-14.15 123.24-14.65 124.24-15.1 125.24-15.55 125.99-15.83 126.74-16.1 126.79-16.05L126.79-16.05Q126.84-15.95 126.62-15.7 126.39-15.45 126.02-15.15 125.64-14.85 125.29-14.6 124.94-14.35 124.79-14.3L124.79-14.3Q123.84-13.75 123.02-13.28 122.19-12.8 121.34-12.4L121.34-12.4Q122.49-11.95 123.69-11.13 124.89-10.3 125.99-9.35 127.09-8.4 128.04-7.53 128.99-6.65 129.64-6.1ZM113.44-3L113.44-3Q113.59-2.15 113.84-1.35 114.09-0.55 114.44 0L114.44 0Q114.49 0 114.52 0.08 114.54 0.15 114.44 0.15L114.44 0.15Q114.34 0.15 114.22 0.08 114.09 0 113.99 0L113.99 0Q113.34-0.4 112.97-0.98 112.59-1.55 112.34-3L112.34-3Q112.24-3.55 112.24-4.4 112.24-5.25 112.29-6.03 112.34-6.8 112.44-7.35 112.54-7.9 112.74-7.9L112.74-7.9Q112.79-7.9 112.87-7.65 112.94-7.4 112.99-7.08 113.04-6.75 113.07-6.45 113.09-6.15 113.09-6.05L113.09-6.05Q113.19-5.2 113.24-4.45 113.29-3.7 113.44-3ZM135.34 0.15L135.34 0.15Q136.14 0.2 136.56 0.18 136.99 0.15 137.69 0.05L137.69 0.05Q137.74 0.05 137.94 0.03 138.14 0 138.19 0.05L138.19 0.05Q138.24 0.15 138.06 0.3 137.89 0.45 137.79 0.5L137.79 0.5Q136.99 0.75 136.31 0.85 135.64 0.95 134.34 0.8L134.34 0.8Q133.89 0.75 133.34 0.6 132.79 0.45 132.34 0.28 131.89 0.1 131.64-0.08 131.39-0.25 131.54-0.35L131.54-0.35Q131.64-0.4 132.17-0.28 132.69-0.15 132.89-0.1L132.89-0.1Q133.59 0.05 134.19 0.1 134.79 0.15 135.34 0.15ZM152.04-25.4L152.04-25.4Q151.34-22.7 150.31-19.8 149.29-16.9 148.19-14.3L148.19-14.3Q148.14-14.2 147.94-13.83 147.74-13.45 147.64-13.5L147.64-13.5Q147.49-13.5 147.51-13.93 147.54-14.35 147.59-14.5L147.59-14.5Q147.64-15.1 147.79-16 147.94-16.9 148.11-17.85 148.29-18.8 148.51-19.7 148.74-20.6 148.94-21.25L148.94-21.25Q149.04-21.45 149.24-22.25 149.44-23.05 149.66-24.18 149.89-25.3 150.14-26.65 150.39-28 150.59-29.3L150.59-29.3 149.99-29.45Q149.74-27.7 149.26-25.88 148.79-24.05 148.21-22.23 147.64-20.4 147.09-18.53 146.54-16.65 146.09-14.8L146.09-14.8Q145.69-13.05 145.49-11.15 145.29-9.25 145.34-7.33 145.39-5.4 145.79-3.58 146.19-1.75 146.99-0.2L146.99-0.2Q147.14 0.15 147.09 0.15L147.09 0.15Q146.99 0.15 146.94 0.1L146.94 0.1 146.84 0Q145.44-1.65 144.76-3.58 144.09-5.5 143.91-7.55 143.74-9.6 143.99-11.7 144.24-13.8 144.69-15.8L144.69-15.8Q145.54-19.5 146.69-22.93 147.84-26.35 148.64-29.65L148.64-29.65Q145.64-30.15 143.01-30.58 140.39-31 138.14-30.55L138.14-30.55Q137.99-30.55 137.99-30.6L137.99-30.6Q137.99-30.7 138.06-30.73 138.14-30.75 138.19-30.8L138.19-30.8Q139.89-31.8 141.81-31.9 143.74-32 145.81-31.73 147.89-31.45 150.06-31.03 152.24-30.6 154.44-30.55L154.44-30.55Q155.79-30.5 157.26-30.78 158.74-31.05 160.11-31.63 161.49-32.2 162.61-33.15 163.74-34.1 164.44-35.4L164.44-35.4Q164.54-35.65 164.64-35.65L164.64-35.65 164.64-35.5 164.64-35.4Q164.09-33.5 162.94-32.27 161.79-31.05 160.31-30.3 158.84-29.55 157.16-29.28 155.49-29 153.89-29.05L153.89-29.05Q154.14-27.5 153.91-25.45 153.69-23.4 153.24-21.3 152.79-19.2 152.29-17.32 151.79-15.45 151.49-14.3L151.49-14.3Q150.89-11.9 150.09-9.4 149.29-6.9 148.64-5L148.64-5Q148.54-4.75 148.41-4.55 148.29-4.35 148.19-4.4L148.19-4.4Q148.09-4.45 148.11-4.67 148.14-4.9 148.14-5.15L148.14-5.15Q148.29-8.9 149.24-12.65 150.19-16.4 151.29-20.2L151.29-20.2Q151.89-22.3 152.46-24.45 153.04-26.6 153.29-29.05L153.29-29.05Q153.04-29.1 152.86-29.1 152.69-29.1 152.44-29.1L152.44-29.1Q152.44-28.1 152.36-27.15 152.29-26.2 152.04-25.4ZM153.39-36.05L153.39-36.05Q155.34-35.8 157.34-35.65 159.34-35.5 160.79-35.5L160.79-35.5Q161.29-35.5 161.29-35.35L161.29-35.35Q161.29-35.15 160.79-35L160.79-35Q158.24-34 155.41-34.1 152.59-34.2 149.69-34.65L149.69-34.65Q147.94-34.9 146.09-35.15 144.24-35.4 142.09-35.15L142.09-35.15Q141.89-35.1 141.89-35.2L141.89-35.2Q141.89-35.3 141.99-35.35 142.09-35.4 142.19-35.5L142.19-35.5Q143.14-36.2 144.64-36.43 146.14-36.65 147.76-36.63 149.39-36.6 150.89-36.4 152.39-36.2 153.39-36.05ZM145.89-34.5L145.89-34.5Q147.99-34.2 150.16-33.75 152.34-33.3 154.39-32.75L154.39-32.75Q154.49-32.65 154.81-32.58 155.14-32.5 155.14-32.35L155.14-32.35Q155.14-32.25 154.84-32.2 154.54-32.15 154.39-32.05L154.39-32.05Q153.94-31.95 153.26-31.95 152.59-31.95 151.86-31.98 151.14-32 150.44-32.05 149.74-32.1 149.24-32.2L149.24-32.2Q148.89-32.25 147.51-32.4 146.14-32.55 144.49-32.6 142.84-32.65 141.31-32.58 139.79-32.5 139.14-32.15L139.14-32.15Q138.94-32.05 138.89-32.05L138.89-32.05 138.84-32.05Q138.84-32.25 139.04-32.45L139.04-32.45Q139.54-33.1 140.41-33.55 141.29-34 142.24-34.25 143.19-34.5 144.16-34.55 145.14-34.6 145.89-34.5ZM147.54-3.55L147.54-3.55Q147.69-2.7 147.91-1.85 148.14-1 148.49-0.2L148.49-0.2Q148.69 0.2 148.54 0.2L148.54 0.2Q148.44 0.2 148.24 0.1L148.24 0.1Q148.14 0.05 148.09-0.05L148.09-0.05Q147.44-0.8 147.06-1.45 146.69-2.1 146.44-3.55L146.44-3.55Q146.34-4.1 146.31-4.95 146.29-5.8 146.34-6.6 146.39-7.4 146.49-7.95 146.59-8.5 146.79-8.5L146.79-8.5Q146.84-8.5 146.91-8.25 146.99-8 147.04-7.68 147.09-7.35 147.14-7.03 147.19-6.7 147.19-6.6L147.19-6.6Q147.29-5.75 147.36-5 147.44-4.25 147.54-3.55ZM162.04-34.85L162.04-34.85Q163.14-35.8 163.89-36.9L163.89-36.9Q163.99-37.1 164.09-37.1L164.09-37.1Q164.14-37.1 164.14-36.75L164.14-36.75Q164.14-36.55 164.09-36.4L164.09-36.4Q163.89-35.55 163.64-35.05 163.39-34.55 162.44-33.85L162.44-33.85Q162.09-33.55 161.49-33.27 160.89-33 160.34-32.8 159.79-32.6 159.36-32.58 158.94-32.55 158.89-32.75L158.89-32.75Q158.89-32.8 159.04-32.93 159.19-33.05 159.41-33.2 159.64-33.35 159.84-33.48 160.04-33.6 160.14-33.65L160.14-33.65Q160.64-33.9 161.11-34.2 161.59-34.5 162.04-34.85Z" fill="#dcbef5" data-fill-palette-color="primary"></path></g></svg></g></svg></g><g transform="matrix(1,0,0,1,163.31020800000002,117.4235384968868)"><svg viewBox="0 0 232.20979199999996 27.53225364653354" height="27.53225364653354" width="232.20979199999996"><g transform="matrix(1,0,0,1,0,0)"><svg width="232.20979199999996" viewBox="2.1499999999999995 -34 403.11 47.800000000000004" height="27.53225364653354" data-palette-color="#dcbef5"><path d="M10.2 0.65L10.2 0.65Q8.35 0.65 6.8 0.3 5.25-0.05 4.25-1L4.25-1Q3.5-1.7 3.25-2.58 3-3.45 3-4.5L3-4.5Q3-6.2 3.3-7.9L3.3-7.9Q3.75-10.85 4.1-14.25 4.45-17.65 4.45-20.55L4.45-20.55Q4.45-21.45 4.38-22.6 4.3-23.75 4.15-24.75L4.15-24.75Q3.8-24.6 3.48-24.48 3.15-24.35 2.9-24.35L2.9-24.35Q2.45-24.35 2.3-24.8 2.15-25.25 2.15-25.8L2.15-25.8Q2.15-27.25 2.83-28.28 3.5-29.3 5.05-30.1L5.05-30.1Q6.7-31 9.38-31.68 12.05-32.35 14.8-32.35L14.8-32.35Q21.05-32.35 24.63-28.68 28.2-25 28.2-18.25L28.2-18.25Q28.2-14.4 27.03-10.98 25.85-7.55 23.55-4.93 21.25-2.3 17.9-0.83 14.55 0.65 10.2 0.65ZM11.8-4.95L11.8-4.95Q14.05-4.95 16.3-5.65 18.55-6.35 20.38-7.75 22.2-9.15 23.3-11.33 24.4-13.5 24.4-16.55L24.4-16.55Q24.4-20 23.05-22.25 21.7-24.5 19.45-25.6 17.2-26.7 14.45-26.7L14.45-26.7Q12.95-26.7 11.48-26.45 10-26.2 9.15-25.95L9.15-25.95Q9.1-23.65 8.88-21.48 8.65-19.3 8.35-17.25L8.35-17.25Q8.05-15.1 7.88-13.05 7.7-11 7.7-9L7.7-9Q7.7-6.5 8.72-5.73 9.75-4.95 11.8-4.95ZM39.15 0.65L39.15 0.65Q35.35 0.65 33.22-1.53 31.1-3.7 31.1-7.6L31.1-7.6Q31.1-11.15 32.65-14.05 34.2-16.95 36.82-18.68 39.45-20.4 42.6-20.4L42.6-20.4Q45.6-20.4 47.4-18.93 49.2-17.45 49.2-15L49.2-15Q49.2-13.05 48-11.4 46.8-9.75 44.8-8.78 42.8-7.8 40.35-7.8L40.35-7.8Q37.35-7.8 35.45-9.15L35.45-9.15Q35.5-6.85 37.02-5.45 38.55-4.05 40.95-4.05L40.95-4.05Q42.4-4.05 43.92-4.58 45.45-5.1 46.55-6L46.55-6Q47.25-6.6 47.85-6.6L47.85-6.6Q48.35-6.6 48.67-6.28 49-5.95 49-5.45L49-5.45Q49-4.35 47.1-2.55L47.1-2.55Q43.75 0.65 39.15 0.65ZM39.9-11.1L39.9-11.1Q41.7-11.1 42.9-11.85 44.1-12.6 44.1-13.75L44.1-13.75Q44.1-14.7 43.3-15.23 42.5-15.75 41.1-15.75L41.1-15.75Q39.25-15.75 37.87-14.78 36.5-13.8 35.9-12.05L35.9-12.05Q36.6-11.6 37.7-11.35 38.8-11.1 39.9-11.1ZM60.09 0.65L60.09 0.65Q56.59 0.65 54.62-1.48 52.65-3.6 52.65-7.4L52.65-7.4Q52.65-11.15 54.24-14.1 55.84-17.05 58.65-18.75 61.45-20.45 65-20.45L65-20.45Q67.39-20.45 68.8-19.65 70.19-18.85 70.19-17.45L70.19-17.45Q70.19-16.2 69-15L69-15Q68.55-14.55 67.82-14.18 67.09-13.8 66.69-13.8L66.69-13.8Q66.25-13.8 65.94-14.15L65.94-14.15Q65.44-14.7 64.64-15.2 63.84-15.7 62.4-15.7L62.4-15.7Q59.95-15.7 58.4-14.03 56.84-12.35 56.84-9.65L56.84-9.65Q56.84-7.2 58.25-5.7 59.65-4.2 61.95-4.2L61.95-4.2Q63.15-4.2 64.57-4.63 66-5.05 67.09-5.85L67.09-5.85Q67.64-6.35 68.25-6.35L68.25-6.35Q69.25-6.35 69.25-5.1L69.25-5.1Q69.25-3.45 67.59-1.95L67.59-1.95Q66.34-0.8 64.27-0.08 62.2 0.65 60.09 0.65ZM81.24 0.65L81.24 0.65Q77.79 0.65 75.72-1.23 73.64-3.1 73.64-6.75L73.64-6.75Q73.64-8.45 74.12-10.05 74.59-11.65 75.39-13.05L75.39-13.05Q74.59-12.55 74.19-12.55L74.19-12.55Q73.59-12.55 73.37-13.23 73.14-13.9 73.14-14.55L73.14-14.55Q73.14-15.7 73.62-16.38 74.09-17.05 74.54-17.4L74.54-17.4Q75.59-18.3 77.84-19.38 80.09-20.45 83.24-20.45L83.24-20.45Q87.54-20.45 89.92-18.05 92.29-15.65 92.29-11.35L92.29-11.35Q92.29-8 90.89-5.28 89.49-2.55 87.02-0.95 84.54 0.65 81.24 0.65ZM82.79-4.45L82.79-4.45Q85.29-4.45 87.02-6.03 88.74-7.6 88.74-10.2L88.74-10.2Q88.74-12.9 86.99-14.05 85.24-15.2 82.94-15.2L82.94-15.2Q81.89-15.2 81.04-15 80.19-14.8 79.44-14.5L79.44-14.5Q78.74-13.5 78.19-12.25 77.64-11 77.64-9.5L77.64-9.5Q77.64-7 79.14-5.73 80.64-4.45 82.79-4.45ZM99.14 0.55L99.14 0.55Q98.34 0.55 97.86 0.28 97.39 0 97.54-0.65L97.54-0.65Q98.09-2.8 98.46-5.03 98.84-7.25 98.84-9.3L98.84-9.3Q98.84-11.95 98.52-13.18 98.19-14.4 97.64-14.88 97.09-15.35 96.29-15.6L96.29-15.6Q95.94-15.75 95.66-16 95.39-16.25 95.39-16.7L95.39-16.7Q95.39-17.4 95.94-18.25 96.49-19.1 97.49-19.73 98.49-20.35 99.79-20.35L99.79-20.35Q101.49-20.35 102.16-19.18 102.84-18 102.84-16.1L102.84-16.1Q103.74-18.1 105.06-19.28 106.39-20.45 108.39-20.45L108.39-20.45Q109.74-20.45 110.64-19.85 111.54-19.25 111.54-17.9L111.54-17.9Q111.54-16.55 110.66-15.38 109.79-14.2 108.89-14.2L108.89-14.2Q108.74-14.2 108.54-14.25 108.34-14.3 108.19-14.5L108.19-14.5Q107.54-15.3 106.59-15.3L106.59-15.3Q105.14-15.3 104.04-13.4 102.94-11.5 102.84-8.15L102.84-8.15Q102.89-6.9 102.91-5.6 102.94-4.3 102.94-3.7L102.94-3.7Q102.94-1.85 101.91-0.65 100.89 0.55 99.14 0.55ZM118.44 0.65L118.44 0.65Q115.44 0.65 113.61-1.23 111.79-3.1 111.79-6.6L111.79-6.6Q111.79-9.1 112.76-11.58 113.74-14.05 115.59-16.05 117.44-18.05 120.04-19.25 122.64-20.45 125.89-20.45L125.89-20.45Q128.89-20.45 131.01-19.43 133.14-18.4 133.14-16.65L133.14-16.65Q133.14-16.2 133.04-15.48 132.94-14.75 132.79-14.3L132.79-14.3Q132.64-13.9 132.36-13.58 132.09-13.25 131.64-13.25L131.64-13.25Q131.44-13.25 130.89-13.4L130.89-13.4Q130.69-12.35 130.59-11.35 130.49-10.35 130.49-9.35L130.49-9.35Q130.49-7.45 131.06-5.98 131.64-4.5 133.34-4.15L133.34-4.15Q133.79-4.05 134.06-3.85 134.34-3.65 134.34-3L134.34-3Q134.34-2.45 134.06-1.6 133.79-0.75 133.01-0.08 132.24 0.6 130.79 0.6L130.79 0.6Q128.84 0.6 127.79-0.83 126.74-2.25 126.74-4.9L126.74-4.9Q125.39-2.45 123.31-0.9 121.24 0.65 118.44 0.65ZM120.04-4.55L120.04-4.55Q122.04-4.55 123.56-5.8 125.09-7.05 125.94-8.95L125.94-8.95Q126.49-10.15 126.79-11.58 127.09-13 127.19-14.4L127.19-14.4Q126.34-14.8 125.24-15.05 124.14-15.3 122.94-15.3L122.94-15.3Q119.89-15.3 117.91-13.5 115.94-11.7 115.94-9L115.94-9Q115.94-7 117.04-5.78 118.14-4.55 120.04-4.55ZM144.74 0.65L144.74 0.65Q141.69 0.65 140.36-1.38 139.04-3.4 139.04-6.6L139.04-6.6Q139.04-7.75 139.16-8.85 139.29-9.95 139.44-11.05L139.44-11.05Q139.59-12.15 139.74-13.2 139.89-14.25 139.99-15.2L139.99-15.2Q138.94-14.9 137.89-14.9L137.89-14.9Q136.79-14.9 136.79-15.8L136.79-15.8Q136.79-16.75 137.64-18.13 138.49-19.5 139.76-20.85 141.04-22.2 142.31-23.13 143.59-24.05 144.49-24.05L144.49-24.05Q145.59-24.05 145.59-22.15L145.59-22.15Q145.59-21.65 145.51-21.13 145.44-20.6 145.34-20.05L145.34-20.05Q146.29-20.25 147.26-20.4 148.24-20.55 149.14-20.55L149.14-20.55Q150.29-20.55 150.91-20.15 151.54-19.75 151.54-18.6L151.54-18.6Q151.54-17.4 150.96-16.2 150.39-15 149.69-15L149.69-15Q149.54-15 149.19-15.05 148.84-15.1 148.34-15.2L148.34-15.2Q147.69-15.35 146.69-15.5 145.69-15.65 144.29-15.65L144.29-15.65Q143.94-14.1 143.66-12.48 143.39-10.85 143.39-9.55L143.39-9.55Q143.39-6.65 144.84-5.6 146.29-4.55 149.04-4.55L149.04-4.55Q149.89-4.55 150.24-4.28 150.59-4 150.59-3.3L150.59-3.3Q150.59-1.65 148.89-0.5 147.19 0.65 144.74 0.65ZM161.63 0.65L161.63 0.65Q157.83 0.65 155.71-1.53 153.58-3.7 153.58-7.6L153.58-7.6Q153.58-11.15 155.13-14.05 156.68-16.95 159.31-18.68 161.93-20.4 165.08-20.4L165.08-20.4Q168.08-20.4 169.88-18.93 171.68-17.45 171.68-15L171.68-15Q171.68-13.05 170.48-11.4 169.28-9.75 167.28-8.78 165.28-7.8 162.83-7.8L162.83-7.8Q159.83-7.8 157.93-9.15L157.93-9.15Q157.98-6.85 159.51-5.45 161.03-4.05 163.43-4.05L163.43-4.05Q164.88-4.05 166.41-4.58 167.93-5.1 169.03-6L169.03-6Q169.73-6.6 170.33-6.6L170.33-6.6Q170.83-6.6 171.16-6.28 171.48-5.95 171.48-5.45L171.48-5.45Q171.48-4.35 169.58-2.55L169.58-2.55Q166.23 0.65 161.63 0.65ZM162.38-11.1L162.38-11.1Q164.18-11.1 165.38-11.85 166.58-12.6 166.58-13.75L166.58-13.75Q166.58-14.7 165.78-15.23 164.98-15.75 163.58-15.75L163.58-15.75Q161.73-15.75 160.36-14.78 158.98-13.8 158.38-12.05L158.38-12.05Q159.08-11.6 160.18-11.35 161.28-11.1 162.38-11.1ZM190.43 13.8L190.43 13.8Q188.38 13.8 186.9 12.7 185.43 11.6 185.43 9.75L185.43 9.75Q185.43 8.3 186.3 7.28 187.18 6.25 188.48 6.25L188.48 6.25Q189.08 6.25 189.33 6.45 189.58 6.65 189.73 6.9L189.73 6.9Q190.13 7.55 190.65 8.03 191.18 8.5 192.08 8.5L192.08 8.5Q193.28 8.5 194.4 7.65 195.53 6.8 196.48 5.7L196.48 5.7Q197.33 4.75 198.53 2.98 199.73 1.2 200.93-1.05L200.93-1.05Q199.83-0.1 198.88 0.33 197.93 0.75 197.08 0.75L197.08 0.75Q196.03 0.75 195.03-0.03 194.03-0.8 193.78-2.95L193.78-2.95Q193.63-4.6 193.2-6.6 192.78-8.6 192.15-10.48 191.53-12.35 190.63-13.65L190.63-13.65Q190.28-14.25 189.83-14.55 189.38-14.85 188.53-14.95L188.53-14.95Q187.93-15 187.75-15.3 187.58-15.6 187.58-16.25L187.58-16.25Q187.58-18.05 188.58-19.15 189.58-20.25 191.28-20.25L191.28-20.25Q193.33-20.25 194.23-18.68 195.13-17.1 195.78-14.85L195.78-14.85Q196.03-13.95 196.3-12.48 196.58-11 196.8-9.3 197.03-7.6 197.13-6.05L197.13-6.05Q197.18-4.95 198.38-4.95L198.38-4.95Q199.98-4.95 201.43-5.95 202.88-6.95 203.8-8.55 204.73-10.15 204.73-11.9L204.73-11.9Q204.73-12.9 204.48-13.7 204.23-14.5 203.63-15.1L203.63-15.1Q203.13-15.7 202.83-16.07 202.53-16.45 202.53-16.95L202.53-16.95Q202.53-17.8 203.33-18.55 204.13-19.3 205.25-19.8 206.38-20.3 207.23-20.3L207.23-20.3Q208.73-20.3 209.23-18.88 209.73-17.45 209.48-15.75L209.48-15.75Q209.18-13.4 208.28-10.2 207.38-7 205.95-3.5 204.53 0 202.7 3.28 200.88 6.55 198.83 9L198.83 9Q197.08 11.15 194.93 12.48 192.78 13.8 190.43 13.8ZM221.08 0.65L221.08 0.65Q217.63 0.65 215.55-1.23 213.48-3.1 213.48-6.75L213.48-6.75Q213.48-8.45 213.95-10.05 214.43-11.65 215.23-13.05L215.23-13.05Q214.43-12.55 214.03-12.55L214.03-12.55Q213.43-12.55 213.2-13.23 212.98-13.9 212.98-14.55L212.98-14.55Q212.98-15.7 213.45-16.38 213.93-17.05 214.38-17.4L214.38-17.4Q215.43-18.3 217.68-19.38 219.93-20.45 223.08-20.45L223.08-20.45Q227.38-20.45 229.75-18.05 232.13-15.65 232.13-11.35L232.13-11.35Q232.13-8 230.73-5.28 229.33-2.55 226.85-0.95 224.38 0.65 221.08 0.65ZM222.63-4.45L222.63-4.45Q225.13-4.45 226.85-6.03 228.58-7.6 228.58-10.2L228.58-10.2Q228.58-12.9 226.83-14.05 225.08-15.2 222.78-15.2L222.78-15.2Q221.73-15.2 220.88-15 220.03-14.8 219.28-14.5L219.28-14.5Q218.58-13.5 218.03-12.25 217.48-11 217.48-9.5L217.48-9.5Q217.48-7 218.98-5.73 220.48-4.45 222.63-4.45ZM242.22 0.65L242.22 0.65Q239.72 0.65 238.35-0.8 236.97-2.25 236.97-5L236.97-5Q236.97-6.95 237.52-9L237.52-9Q237.77-9.85 237.92-10.7 238.07-11.55 238.07-12.4L238.07-12.4Q238.07-14.6 236.72-15.25L236.72-15.25Q235.42-15.95 235.42-16.75L235.42-16.75Q235.42-17.55 236.1-18.35 236.77-19.15 237.77-19.68 238.77-20.2 239.77-20.2L239.77-20.2Q242.62-20.2 242.62-15.55L242.62-15.55Q242.62-14.05 242.4-12.78 242.17-11.5 241.87-10.35L241.87-10.35Q241.67-9.55 241.55-8.75 241.42-7.95 241.42-7.35L241.42-7.35Q241.42-4.85 243.87-4.85L243.87-4.85Q246.17-4.85 248.17-7.3 250.17-9.75 251.47-14.15L251.47-14.15 251.42-15.1Q251.32-17.6 252.3-18.9 253.27-20.2 255.17-20.2L255.17-20.2Q256.82-20.2 256.82-19.15L256.82-19.15Q256.82-18.8 256.7-18.25 256.57-17.7 256.32-16.95L256.32-16.95Q255.82-15.1 255.47-13.03 255.12-10.95 255.12-9.2L255.12-9.2Q255.12-7.25 255.72-5.98 256.32-4.7 257.97-4.25L257.97-4.25Q258.42-4.2 258.7-3.98 258.97-3.75 258.97-3.05L258.97-3.05Q258.97-1.85 257.97-0.7 256.97 0.45 255.07 0.45L255.07 0.45Q251.42 0.45 251.42-4.7L251.42-4.7Q251.42-5.6 251.57-7.4L251.57-7.4 251.47-7.45Q248.32 0.65 242.22 0.65ZM264.82 0.55L264.82 0.55Q264.02 0.55 263.55 0.28 263.07 0 263.22-0.65L263.22-0.65Q263.77-2.8 264.15-5.03 264.52-7.25 264.52-9.3L264.52-9.3Q264.52-11.95 264.2-13.18 263.87-14.4 263.32-14.88 262.77-15.35 261.97-15.6L261.97-15.6Q261.62-15.75 261.35-16 261.07-16.25 261.07-16.7L261.07-16.7Q261.07-17.4 261.62-18.25 262.17-19.1 263.17-19.73 264.17-20.35 265.47-20.35L265.47-20.35Q267.17-20.35 267.85-19.18 268.52-18 268.52-16.1L268.52-16.1Q269.42-18.1 270.75-19.28 272.07-20.45 274.07-20.45L274.07-20.45Q275.42-20.45 276.32-19.85 277.22-19.25 277.22-17.9L277.22-17.9Q277.22-16.55 276.35-15.38 275.47-14.2 274.57-14.2L274.57-14.2Q274.42-14.2 274.22-14.25 274.02-14.3 273.87-14.5L273.87-14.5Q273.22-15.3 272.27-15.3L272.27-15.3Q270.82-15.3 269.72-13.4 268.62-11.5 268.52-8.15L268.52-8.15Q268.57-6.9 268.6-5.6 268.62-4.3 268.62-3.7L268.62-3.7Q268.62-1.85 267.6-0.65 266.57 0.55 264.82 0.55ZM298.97 0.7L298.97 0.7Q297.27 0.7 296.34-0.28 295.42-1.25 295.32-4L295.32-4Q295.27-6.95 295.02-9.85 294.77-12.75 294.22-15.35L294.22-15.35Q293.47-19.15 292.17-22.2 290.87-25.25 288.52-27.45L288.52-27.45Q288.12-27.85 287.87-28.2 287.62-28.55 287.62-29L287.62-29Q287.62-30.05 288.72-31.03 289.82-32 291.32-32L291.32-32Q293.07-32 294.32-30.5 295.57-29 296.47-26.3L296.47-26.3Q297.52-23.55 298.12-20.3 298.72-17.05 298.94-13.68 299.17-10.3 299.17-7.15L299.17-7.15Q299.17-6.05 299.47-5.7 299.77-5.35 300.52-5.35L300.52-5.35Q302.17-5.35 303.79-6.35 305.42-7.35 306.74-9.08 308.07-10.8 308.87-12.9 309.67-15 309.72-17.15L309.72-17.15Q309.77-19.4 308.94-21.53 308.12-23.65 306.82-25.15L306.82-25.15Q306.47-25.55 306.29-25.88 306.12-26.2 306.12-26.55L306.12-26.55Q306.12-27.35 306.77-28.1 307.42-28.85 308.27-29.35 309.12-29.85 309.72-29.85L309.72-29.85Q310.97-29.85 311.84-28.03 312.72-26.2 313.32-23.6L313.32-23.6Q314.17-20.3 314.52-16.2 314.87-12.1 314.87-7.55L314.87-7.55Q314.87-6.3 315.12-5.85 315.37-5.4 316.22-5.4L316.22-5.4Q318.02-5.4 319.72-6.7 321.42-8 322.74-10.28 324.07-12.55 324.84-15.48 325.62-18.4 325.62-21.65L325.62-21.65Q325.62-24.1 325.24-25.63 324.87-27.15 324.52-27.8L324.52-27.8Q324.02-28.75 324.02-29.4L324.02-29.4Q324.02-30.15 324.69-30.83 325.37-31.5 326.32-31.95 327.27-32.4 327.97-32.4L327.97-32.4Q329.07-32.4 329.54-31.48 330.02-30.55 330.14-29.2 330.27-27.85 330.27-26.65L330.27-26.65Q330.27-23.2 329.54-19.43 328.82-15.65 327.47-12.08 326.12-8.5 324.24-5.63 322.37-2.75 320.02-1.03 317.67 0.7 314.97 0.7L314.97 0.7Q313.17 0.7 312.32-0.1 311.47-0.9 311.22-2.35 310.97-3.8 310.97-5.75L310.97-5.75Q310.97-6.9 310.99-7.93 311.02-8.95 311.02-9.8L311.02-9.8Q308.72-4.65 305.47-1.98 302.22 0.7 298.97 0.7ZM340.11 0.65L340.11 0.65Q336.66 0.65 334.59-1.23 332.51-3.1 332.51-6.75L332.51-6.75Q332.51-8.45 332.99-10.05 333.46-11.65 334.26-13.05L334.26-13.05Q333.46-12.55 333.06-12.55L333.06-12.55Q332.46-12.55 332.24-13.23 332.01-13.9 332.01-14.55L332.01-14.55Q332.01-15.7 332.49-16.38 332.96-17.05 333.41-17.4L333.41-17.4Q334.46-18.3 336.71-19.38 338.96-20.45 342.11-20.45L342.11-20.45Q346.41-20.45 348.79-18.05 351.16-15.65 351.16-11.35L351.16-11.35Q351.16-8 349.76-5.28 348.36-2.55 345.89-0.95 343.41 0.65 340.11 0.65ZM341.66-4.45L341.66-4.45Q344.16-4.45 345.89-6.03 347.61-7.6 347.61-10.2L347.61-10.2Q347.61-12.9 345.86-14.05 344.11-15.2 341.81-15.2L341.81-15.2Q340.76-15.2 339.91-15 339.06-14.8 338.31-14.5L338.31-14.5Q337.61-13.5 337.06-12.25 336.51-11 336.51-9.5L336.51-9.5Q336.51-7 338.01-5.73 339.51-4.45 341.66-4.45ZM358.01 0.55L358.01 0.55Q357.21 0.55 356.74 0.28 356.26 0 356.41-0.65L356.41-0.65Q356.96-2.8 357.34-5.03 357.71-7.25 357.71-9.3L357.71-9.3Q357.71-11.95 357.39-13.18 357.06-14.4 356.51-14.88 355.96-15.35 355.16-15.6L355.16-15.6Q354.81-15.75 354.54-16 354.26-16.25 354.26-16.7L354.26-16.7Q354.26-17.4 354.81-18.25 355.36-19.1 356.36-19.73 357.36-20.35 358.66-20.35L358.66-20.35Q360.36-20.35 361.04-19.18 361.71-18 361.71-16.1L361.71-16.1Q362.61-18.1 363.94-19.28 365.26-20.45 367.26-20.45L367.26-20.45Q368.61-20.45 369.51-19.85 370.41-19.25 370.41-17.9L370.41-17.9Q370.41-16.55 369.54-15.38 368.66-14.2 367.76-14.2L367.76-14.2Q367.61-14.2 367.41-14.25 367.21-14.3 367.06-14.5L367.06-14.5Q366.41-15.3 365.46-15.3L365.46-15.3Q364.01-15.3 362.91-13.4 361.81-11.5 361.71-8.15L361.71-8.15Q361.76-6.9 361.79-5.6 361.81-4.3 361.81-3.7L361.81-3.7Q361.81-1.85 360.79-0.65 359.76 0.55 358.01 0.55ZM375.21 0.5L375.21 0.5Q373.76 0.5 373.06-0.3 372.36-1.1 372.36-3.1L372.36-3.1Q372.36-4.05 372.51-5.55 372.66-7.05 372.86-8.8L372.86-8.8Q373.16-10.95 373.38-13.3 373.61-15.65 373.61-17.8L373.61-17.8Q373.61-20.85 373.33-24.13 373.06-27.4 371.81-29.85L371.81-29.85Q371.36-30.85 371.36-31.3L371.36-31.3Q371.36-31.95 371.93-32.55 372.51-33.15 373.36-33.58 374.21-34 375.01-34L375.01-34Q376.31-34 376.96-32.83 377.61-31.65 377.81-29.63 378.01-27.6 378.01-25L378.01-25Q378.01-21.05 377.68-18.15 377.36-15.25 377.06-13.05L377.06-13.05Q376.86-11.6 376.68-10.3 376.51-9 376.51-7.95L376.51-7.95Q376.51-6.2 377.08-5.43 377.66-4.65 378.96-3.9L378.96-3.9Q379.31-3.7 379.48-3.53 379.66-3.35 379.66-3L379.66-3Q379.66-2.6 379.26-1.75 378.86-0.9 377.88-0.2 376.91 0.5 375.21 0.5ZM389.16 0.65L389.16 0.65Q386.16 0.65 384.43-1.35 382.71-3.35 382.71-6.8L382.71-6.8Q382.71-9.35 383.53-11.8 384.36-14.25 385.86-16.2 387.36-18.15 389.36-19.3 391.36-20.45 393.71-20.45L393.71-20.45Q395.21-20.45 396.38-20 397.56-19.55 398.46-18.85L398.46-18.85Q398.41-22.25 398.11-24.95 397.81-27.65 396.66-29.95L396.66-29.95Q396.46-30.35 396.33-30.68 396.21-31 396.21-31.3L396.21-31.3Q396.21-32 396.78-32.6 397.36-33.2 398.21-33.6 399.06-34 399.81-34L399.81-34Q401.16-34 401.83-32.83 402.51-31.65 402.71-29.63 402.91-27.6 402.91-25L402.91-25Q402.91-21.2 402.56-18.15 402.21-15.1 401.91-12.8L401.91-12.8Q401.71-11.3 401.56-10.2 401.41-9.1 401.41-8.4L401.41-8.4Q401.41-4.85 404.46-4.2L404.46-4.2Q405.26-4.05 405.26-3.15L405.26-3.15Q405.26-2.6 404.93-1.75 404.61-0.9 403.76-0.23 402.91 0.45 401.31 0.45L401.31 0.45Q399.16 0.45 398.41-1 397.66-2.45 397.66-5.4L397.66-5.4Q396.26-2.85 394.11-1.1 391.96 0.65 389.16 0.65ZM390.71-4.7L390.71-4.7Q392.11-4.7 393.51-5.6 394.91-6.5 396.01-8.05L396.01-8.05Q396.66-9 397.18-10.23 397.71-11.45 398.16-12.7L398.16-12.7Q395.61-15 392.51-15L392.51-15Q389.81-15 388.21-13.38 386.61-11.75 386.61-9.35L386.61-9.35Q386.61-7.3 387.81-6 389.01-4.7 390.71-4.7Z" opacity="1" transform="matrix(1,0,0,1,0,0)" fill="#dcbef5" class="slogan-text-1" data-fill-palette-color="secondary" id="text-1"></path></svg></g></svg></g></svg></g></svg></g><g transform="matrix(1,0,0,1,448.9399631989644,0)"><svg viewBox="0 0 132.28023827780808 200.328904742207" height="200.328904742207" width="132.28023827780808"><g><svg xmlns="http://www.w3.org/2000/svg" xmlns:xlink="http://www.w3.org/1999/xlink" version="1.1" x="0" y="0" viewBox="17 1.121 64.631 97.879" enable-background="new 0 0 100 100" xml:space="preserve" height="200.328904742207" width="132.28023827780808" class="icon-icon-0" data-fill-palette-color="accent" id="icon-0"><polygon fill-rule="evenodd" clip-rule="evenodd" points="49.061,1.121 40.579,27.583 48.891,29.789 " fill="#dcbef5" data-fill-palette-color="accent"></polygon><polygon fill-rule="evenodd" clip-rule="evenodd" points="51.267,30.297 51.096,6.217 60.086,33.351 " fill="#dcbef5" data-fill-palette-color="accent"></polygon><polygon fill-rule="evenodd" clip-rule="evenodd" points="51.267,33.521 51.267,42.851 62.801,41.833 61.105,36.234 " fill="#dcbef5" data-fill-palette-color="accent"></polygon><polygon fill-rule="evenodd" clip-rule="evenodd" points="48.891,32.673 48.891,43.189 34.981,44.547 39.731,29.958 " fill="#dcbef5" data-fill-palette-color="accent"></polygon><polygon fill-rule="evenodd" clip-rule="evenodd" points="34.133,47.261 31.323,55.137 48.891,57.778 48.891,46.074 " fill="#dcbef5" data-fill-palette-color="accent"></polygon><polygon fill-rule="evenodd" clip-rule="evenodd" points="51.605,45.565 51.267,58.117 68.908,60.662 63.48,44.377 " fill="#dcbef5" data-fill-palette-color="accent"></polygon><polygon fill-rule="evenodd" clip-rule="evenodd" points="48.891,60.662 48.891,71.35 25.312,74.063 30.44,57.778 " fill="#dcbef5" data-fill-palette-color="accent"></polygon><polygon fill-rule="evenodd" clip-rule="evenodd" points="51.436,61.171 51.267,71.01 71.623,68.975 70.068,63.569 " fill="#dcbef5" data-fill-palette-color="accent"></polygon><polygon fill-rule="evenodd" clip-rule="evenodd" points="48.891,74.402 48.891,87.465 22.259,83.055 24.294,76.608 " fill="#dcbef5" data-fill-palette-color="accent"></polygon><polygon fill-rule="evenodd" clip-rule="evenodd" points="51.267,74.063 51.267,87.804 79.594,92.723 72.705,71.645 " fill="#dcbef5" data-fill-palette-color="accent"></polygon><polygon fill-rule="evenodd" clip-rule="evenodd" points="48.891,90.35 48.891,98.798 17,99 21.24,85.768 " fill="#dcbef5" data-fill-palette-color="accent"></polygon><polygon fill-rule="evenodd" clip-rule="evenodd" points="51.436,90.857 80.443,95.606 81.631,99 51.267,99 " fill="#dcbef5" data-fill-palette-color="accent"></polygon></svg></g></svg></g></svg></g><defs></defs></svg><rect width="395.52" height="136.32370004056745" fill="none" stroke="none" visibility="hidden"></rect></g></svg></g></svg>